<svg class="yalesom-logo yalesom-logo--horizontal" xmlns="http://www.w3.org/2000/svg" viewBox="0 0 493 64.3" style="enable-background:new 0 0 493 64.3" xml:space="preserve"><g class="yalesom-logo__text"><g fill="#002856"><path d="M165.8 34.9c-1.9 0-3.5-.6-4.4-.9l-.4-4h.8c.2.9 1 2.2 1.8 2.8.6.4 1.7 1.1 2.6 1.1 1.8 0 2.9-1.2 2.9-2.5 0-1.5-1.2-2.1-2.8-2.8-3.3-1.4-4.7-2.4-4.7-4.7 0-2.6 2.6-4.3 6-4.3 1.7 0 2.9.4 3.7.8v3.9h-.8c-.1-1-.5-2.2-1.4-2.7-.3-.2-1.3-.8-2.3-.8-1.8 0-2.8 1.2-2.8 2.3 0 1.4.9 2.1 3 3 3.1 1.2 4.5 2.3 4.5 4.6.2 2.5-2.5 4.2-5.7 4.2zM188.1 34l-.5.2c-1.4.5-2.2.7-4.6.7-4.8 0-8.3-3.4-8.3-7.8 0-4.5 3.7-7.6 8.3-7.6 1.9 0 3.3.3 4.6.7l.8.2v4.1h-.8c-.1-1-.5-2.1-1.4-2.7-.5-.3-1.5-1.1-3.4-1.1-3.2 0-5.1 2.8-5.1 5.9 0 4.3 2.4 7.2 6.2 7.2 1.2 0 2.1-.5 2.5-.9.9-.7 1.6-1.8 1.8-2.8l.8.1-.9 3.8zM201.7 34.5v-.8c1 0 2-.4 2.3-.8v-5.3h-7.7V33c.2.4 1.2.7 2.2.7v.8h-7.1v-.8c.9 0 1.9-.4 2.2-.7V21.3c-.2-.4-1.2-.7-2.2-.8v-.7h7.1v.7c-1 .1-2 .4-2.2.8v5h7.7v-5c-.4-.3-1.3-.7-2.3-.8v-.7h7.2v.7c-1 .1-2 .4-2.3.8V33c.3.4 1.2.7 2.3.8v.8l-7.2-.1zM218.4 34.9c-4.7 0-7.4-3.2-7.4-7.7s3.7-7.8 8.4-7.8c4.8 0 7.4 3.3 7.4 7.5 0 4.7-3.7 8-8.4 8zm-.2-14.3c-2.1 0-4.2 2.4-4.2 5.9 0 4.2 2 7.2 5.6 7.2 2.2 0 4.4-2.3 4.4-5.9-.1-4.3-2.3-7.2-5.8-7.2zM237.1 34.9c-4.7 0-7.4-3.2-7.4-7.7s3.7-7.8 8.4-7.8c4.8 0 7.4 3.3 7.4 7.5.1 4.7-3.6 8-8.4 8zm-.2-14.3c-2.1 0-4.2 2.4-4.2 5.9 0 4.2 2 7.2 5.6 7.2 2.2 0 4.4-2.3 4.4-5.9 0-4.3-2.3-7.2-5.8-7.2zM247.3 34.5v-.8c.9-.1 2.3-.4 2.7-1V21.3c-.2-.4-1.1-.7-2.2-.7v-.8h7.3v.8c-1 .1-2.2.4-2.4.8v12l4.1-.1c1.5 0 2.6-1.6 2.6-3.4h.8v4.8l-12.9-.2zM277.1 34.9c-4.7 0-7.4-3.2-7.4-7.7s3.7-7.8 8.4-7.8c4.8 0 7.4 3.3 7.4 7.5.1 4.7-3.6 8-8.4 8zm-.2-14.3c-2.1 0-4.2 2.4-4.2 5.9 0 4.2 2 7.2 5.6 7.2 2.2 0 4.4-2.3 4.4-5.9 0-4.3-2.3-7.2-5.8-7.2zM298.5 23.6c-.1-2-.9-2.5-2.6-2.5h-3.2v5.6l3-.1c1.5-.1 2.1-.1 2.3-1.8h.7v5.1h-.8c-.2-1.9-.8-1.9-2.3-1.9h-3.1v4.8c.3.6 1.6 1 2.6 1.1v.8h-7.8v-.8c1.1-.1 2.2-.3 2.5-1V21.3c-.3-.4-1.3-.8-2.3-.8v-.8h9.6c.5 0 1 0 1.4-.2h.6v4l-.6.1zM321.3 34.5v-.8c1-.1 2.2-.4 2.4-.8-.1-2.8-.3-5.7-.4-8.5v-2.1c-.2.4-.5 1.1-.6 1.5L318 34.4h-1l-4-11c-.2-.5-.3-.9-.5-1.4V23.3l-.6 9.4c.2.4 1.3.9 2.3.9v.8H308v-.8c1-.1 2-.5 2.3-1l.6-8.2v-.8c.1-.7.1-1.6.1-1.7v-.7c-.2-.4-1-.7-2.1-.8v-.8h5.3l.8 2.3c1 2.9 2.2 6 3.2 8.8 1.2-2.9 2.5-5.8 3.7-8.6l1-2.5h4.7v.8c-.9.1-1.7.5-2.1.8v.5c0 .2.1 2 .2 2.8l.5 8.4c.4.4 1.4.8 2.3.8v.8h-7.2zM339.7 34.5v-.8c.9-.1 1.9-.4 2.2-.8l-1.5-4.2h-4.6l-1.5 4c.3.5 1.2.9 2.2 1v.8h-6.1v-.8c1-.1 1.8-.2 2.2-.8l.2-.3c.6-1.5 1.3-3.1 1.9-4.9l.4-1 .4-1.1c.7-1.8 1.3-3.4 1.7-4.6.2-.6.2-.9.3-1.3v-.2h2.9c.1.8.1 1.2.3 1.8l1.5 4.7.5 1.6c.5 1.6 1.1 3 1.8 4.8l.1.3c.2.6 1.1.9 2.2.9v.8l-7.1.1zm-1.2-11.6-.3-1c-.1.3-.2.7-.3 1l-1.7 4.7h3.8l-1.5-4.7zM365.9 20.5c-.9.1-1.9.6-2.2 1v8.8c0 1.2.1 3.4.1 4.4h-1.5l-9-11-.9-1.2.1 1v5.3c0 .6 0 1.3.1 1.9v1c0 .3.1.8.1 1 .4.4 1.6.9 2.6 1v.8h-6.5v-.8c1-.1 2-.5 2.3-.9v-8.3c0-1.1 0-2.2-.1-3.1-.3-.5-1.2-.9-2.2-.9v-.8h4.8l1.3 1.7 7.4 9v-5.1c0-.9-.1-2.1-.1-3V21.4c-.4-.4-1.6-.9-2.6-1v-.8h6.4l-.1.9zM376.1 34.5v-.8c.9-.1 1.9-.4 2.2-.8l-1.5-4.2h-4.6l-1.5 4c.3.5 1.2.9 2.2 1v.8h-6.1v-.8c1-.1 1.8-.2 2.2-.8l.2-.3c.6-1.5 1.3-3.1 1.9-4.9l.4-1 .4-1.1c.7-1.8 1.3-3.4 1.7-4.6.2-.6.2-.9.3-1.3v-.2h2.9c.1.8.1 1.2.3 1.8l1.6 4.7.5 1.6c.5 1.6 1.1 3 1.8 4.8l.1.3c.2.6 1.1.9 2.2.9v.8l-7.2.1zm-1.3-11.6-.3-1c-.1.3-.2.7-.3 1l-1.7 4.7h3.8l-1.5-4.7zM399.5 28.7c-.9.1-1.5.4-1.8.8v3.8c-1.6.8-3.5 1.5-6.3 1.5-4.6 0-7.6-3.6-7.6-7.8 0-4.5 3.8-7.6 8.4-7.6 1.8 0 3.1.3 4.3.6l1 .2v4h-.8c-.1-.6-.4-1.7-1.2-2.4 0 0-.1 0-.1-.1-.4-.4-1.5-1.3-3.6-1.3-3.4 0-5.1 3-5.1 6.2 0 4 1.9 7 5.3 7 1.1 0 2.4-.8 2.9-1.2v-3c-.4-.4-1.8-.8-2.7-.8v-.8h7.2l.1.9zM406.1 34.5l-5.3.1v-.8c1.1-.1 2.6-.4 3-1.1V21.3c-.2-.4-1.2-.7-2.2-.7v-.8h9.6c.6 0 1.1-.1 1.4-.2h.6v4h-.7c-.1-2-.9-2.5-2.6-2.5h-3.3v5.3h3c1.5 0 2.2 0 2.4-1.7h.7v4.9h-.7c-.2-1.9-.7-1.9-2.3-1.9h-3v4.9c.1.2.3.6.5.7h3.7c1.5 0 2.5-.7 2.6-2.6h.7v3.9l-8.1-.1zM429.9 34.5v-.8c1-.1 2.2-.4 2.4-.8-.1-2.8-.3-5.7-.4-8.5v-2.1c-.1.4-.5 1.1-.6 1.5l-4.7 10.6h-1l-4-11c-.2-.5-.3-.9-.5-1.4V23.3l-.6 9.4c.2.4 1.3.9 2.3.9v.8h-6.1v-.8c1-.1 2-.5 2.3-1l.6-8.2v-.8c.1-.7.1-1.6.1-1.7v-.7c-.2-.4-1-.7-2.1-.8v-.8h5.3l.8 2.3c1 2.9 2.2 6 3.2 8.8 1.2-2.9 2.5-5.8 3.7-8.6l1-2.5h4.7v.8c-.9.1-1.7.5-2.1.8v.5c0 .2.1 2 .2 2.8l.5 8.4c.4.4 1.4.8 2.3.8v.8h-7.3zM444.6 34.5l-5.3.1v-.8c1.1-.1 2.6-.4 2.9-1.1V21.3c-.2-.4-1.2-.7-2.2-.7v-.8h9.6c.6 0 1.1-.1 1.4-.2h.6v4h-.7c-.1-2-.9-2.5-2.6-2.5H445v5.3h3c1.5 0 2.2 0 2.4-1.7h.7v4.9h-.7c-.2-1.9-.7-1.9-2.3-1.9h-3v4.9c.1.2.3.6.5.7h3.7c1.5 0 2.5-.7 2.6-2.6h.7v3.9l-8-.1zM472.3 20.5c-.9.1-1.9.6-2.2 1v8.8c0 1.2.1 3.4.2 4.4h-1.5l-9-11-.9-1.2.1 1v5.3c0 .6 0 1.3.1 1.9v1c0 .3.1.8.1 1 .4.4 1.6.9 2.6 1v.8h-6.5v-.8c1-.1 2-.5 2.3-.9v-8.3c0-1.1 0-2.2-.1-3.1-.3-.5-1.2-.9-2.2-.9v-.8h4.8l1.3 1.7 7.4 9v-5.1c0-.9-.1-2.1-.1-3V21.4c-.4-.4-1.6-.9-2.6-1v-.8h6.4l-.2.9zM488.7 24c-.1-1.9-1.1-2.9-2.7-3h-2.4v11.5c.5 1 1.8 1.2 2.9 1.2v.8H478v-.8c1-.1 2.5-.3 2.9-.9V21h-2.4c-1.6 0-2.7 1.1-2.7 3h-.8v-4.5h.6c.3.1.6.2 1.4.2h10.5c.5 0 1.1-.1 1.4-.2h.6V24h-.8z"/></g><path fill="#002856" d="M141 19.5c-1.9 0-3.2 1.5-3.6 3.8h6.6c0-2-1.2-3.8-3-3.8zm-.3 15.1c-3.9 0-6.9-3.1-6.9-7.4 0-5.3 3.2-8.9 7.8-8.9 3.7 0 5.7 2.1 5.7 5.4v.7l-10-.1c-.1.4-.1 1.1-.1 1.9 0 3.8 2.4 6.3 5.5 6.3 1.9 0 2.9-.7 4.3-1.9l.6.9c-2.1 1.9-3.8 3.1-6.9 3.1zm-17.1-.3v-.9c1.7-.1 2.1-.5 2.4-1.1V13.1c0-1.3-.2-1.8-2.7-2v-.7l6.8-1.7.2.6-1.1 1.3v21.7c.4.7 1.1 1 2.6 1.1v.9h-8.2zm-11.3-5.7c-.1.6-.3 1.1-.3 1.9 0 1.1.6 2.2 1.9 2.2 1.1 0 1.7-.4 2.7-1.2v-5c-.9.6-3.3 1.6-4.3 2.1zm7.4 6.1c-2 0-3-1.4-3-2.3-1.3 1.3-2.9 2.3-4.4 2.3-2 0-3.7-1.2-3.7-3.3 0-1 .3-2.1.8-3l7.4-2.7V23c0-1.7-.8-3.3-2.4-3.3-1 0-2 1.2-2 3.1l-3.3.6V23c1.1-3.3 4.8-4.6 6.6-4.6 3.4 0 4.6 1.8 4.6 4.5l-.1 7.8c0 1.5.8 1.9 1.5 1.9.6 0 1.2-.4 1.9-1.1v1.1c-1.2.9-2.6 2.1-3.9 2.1zm-12.2-20.5-6.1 10.3v6.9c.7 1.7 2.5 1.9 4.2 2v1h-12v-1c1.7-.1 3.8-.3 4.3-1.4v-7.2l-6.2-10.5c-1.1-1.8-2.1-2.4-4.2-2.5v-1h10.4v1c-2 .1-2.6.5-3.2.9l5.8 10 5.7-10c-.6-.4-1.4-.9-3.3-1v-1h8.9v1c-2 .1-3.2.7-4.3 2.5z"/></g><g class="yalesom-logo__shield"><path class="yalesom-logo__shield-outline" d="M51.5 1v18.1c0 9.2-.2 31.4-25.1 43.7l-.1.1-.1-.1C1.2 50.4 1 28.3 1 19V.9h50.5m1-.9H0v19.1C0 27.8 0 51 25.7 63.7l.1.1.4.2.4-.2.1-.1C52.4 51 52.4 27.8 52.4 19.1V1l.1-1z"/><path fill="#FFF" d="M51.5 18.5v.5c0 9.2-.2 31.4-25.1 43.7l-.1.1-.1-.1C1.2 50.4 1 28.3 1 19V.9h50.5v17.6z"/><path fill="#002856" d="M51.5 19c0 9.4-.3 31.5-25.2 43.9C1.3 50.5 1 28.4 1 19h50.5zM1 .9h50.5v17.2H1z"/><path d="M25.5 3c.5.1.9 1 .9 1s.3-1 1.5-1.1 3.1.8 4.6-.4l.9 1.3.5-.3.6.6V6c.1.3.4.5.8.6 0 0 .1-.3 0-.7-.3-.7-.2-1.3.2-1.7.1.1.6.3.9.2-.2.4-.2.9-.1 1.4.2.6 0 1.3-.3 1.7-.3.3-.8.2-1.1 0l-.2-.1v4.8c.1.2.2.5.4.6.5-.2.1-.9.2-1.3 0-.3.2-.5.3-.7.2.1.8.2.9.2 0 .2-.3.6-.2 1 .2 1.3-.4 1.9-.7 2-.4.1-.7-.1-1-.3v2.5l-6.8-.1c0 .3-.1.9-1.2.9s-1.2-.7-1.3-.9c-2.4 0-7-.1-7-.1v-2.1c-.3.2-.5.4-.8.3-.4-.1-.6-.6-.6-1.2-.1-.6.2-1.2-.3-1.7.2-.1.3-.1.5-.2.2 0 .5-.1.5-.1.4.5.1 1.4.1 1.6s.1.4.1.4c.2-.2.4-.2.6-.5V7.7c-.3.1-.6.3-.9.2-.3-.1-.6-.5-.8-1.2-.1-.8.2-1.7-.1-2.2l.9-.3c.4.7.2 1.6 0 2.3 0 .1 0 .2.1.3.2-.1.5-.3.7-.4V4.2l.6-.5h.6s.6-.8.7-1c1.5.7 3.6-.2 5.3.3"/><path fill="#FFF" d="M25.6 3.4c.4.2.6.6.6 1v10.5c-.8-1.4-1.7-.8-4.5-.8-.6 0-1.4-.3-1.6-.6V2.9c1.7.9 3.8-.2 5.5.5M32.3 13.7s-.2.4-1.6.4c-1.3.1-3.4-.7-4.2.8V4.3c.1-.4.4-.6.8-.8 1.3-.4 1.8.1 3.1 0 1.2-.1 1.7-.3 2-.6l-.1 10.8z"/><path fill="#BB9905" d="M33.2 15c-.3-.3-.6-.8-.6-1.2V3.1l.6.9v11zM19.9 11.2v2.5c-.1.3-.3.6-.5.8V9c0-1.7 0-3.8.1-5.4L20 3l-.1 8.2z"/><path fill="#FFF" d="M19.3 3.8 19.2 15l5.8.2.2.2-6.4-.1.1-11.6zM18.7 5.8l-.1 9.6-.2.1V4.2l.3-.3zM33.7 3.9l-.1 11.6c-2 0-6.2-.1-6.2-.1l.1-.2h5.8V4l.4-.1zM34.3 4.3S34.2 15 34.1 16l-.3-.4.2-11.7.3.4zM17.2 5.1c0 .5-.3 1.1 0 1.6 0 0-.1.1-.3.1s-.3-.3-.3-.5c-.1-.6.2-.9.1-1.7l.5-.2v.7zM35.9 4.7c-.3.6.1 1.2 0 1.8-.1.1-.3.1-.5.1.2-.4 0-.6-.2-1.3-.1-.5.2-.8.2-.8s.2.2.5.2M35.8 6.9c0 .1-.1.5-.4.6-.3.1-.8-.2-1-.3v-.7c.3.3.9.5 1.4.4M18.1 7.2c-.3.2-.8.5-1.1.2-.1-.1-.2-.2-.2-.4.5 0 1-.2 1.4-.5l-.1.7zM35.9 11.3c-.3.9 0 1.4-.2 1.7-.2.4-.8.1-.8.1s.2 0 .3-.3-.2-1.1.2-1.6l.5.1zM17.3 11.5c.1.4 0 .8 0 1.2l.1.3c-.1.1-.3 0-.4 0-.3-.5.2-1.1-.2-1.6l.4-.1c-.1-.1 0 .1.1.2"/><path fill="#FFF" d="M35.7 13.3c-.1.2-.2.5-.5.5s-.7-.1-.9-.4v-.6c.4.3.8.7 1.4.5M18.1 13.4c-.3.2-.7.5-.9.3-.2-.1-.3-.3-.3-.5.4.1.9-.2 1.2-.5v.7z"/><path fill="#BB9905" d="M26.2 15.3c.1.3 0 .3 0 .4-.5.1-.8-.3-1.1-.7 0 0-3.9-.2-5.6-.2.2-.3.6-.6.6-1 1.4 1.3 5.2-.4 6.1 1.5M32.9 15c-1.9.1-3.8 0-5.6.1-.2.3-.5.7-.9.6.5-1.7 2.1-1.3 4.3-1.3 1.2 0 1.6-.5 1.6-.5.1.4.5.9.6 1.1"/><path fill="#FFF" d="M25.3 15.6s0 .1.1.1c-.4.1-6.9 0-6.9 0l.4-.2 6.4.1zM33.6 15.7l.3.3-6.7-.2.1-.1c0-.1 4.2-.1 6.3 0M26.3 16.1c.3 0 .6-.1.8-.3.2.3-.1.7-.8.7-.8 0-1.1-.5-.9-.8.3.4.7.4.9.4"/><path d="M23.7 11.5c-.2 0-.4-.1-.6-.1s-.5 0-.7.1c0-.5.1-.9.2-1.2.6.1.9.1 1 .2.1.1 0 .4.1 1m.3-.8c0-.8-.4-.9-1.1-.9-.5 0-.6-.1-.7-.4h-.1c-.1.2-.2.3-.2.5s.1.3.3.4c-.3.4-.3 1-.3 1.7.3 0 .6-.1.9-.1s.6 0 .9.1c.2-.5.3-.9.3-1.3M29.9 11.4c-.2-.1-.4-.1-.7-.1-.2 0-.4 0-.6.1V11c0-.2.1-.5.2-.7.5 0 .8 0 1 .1.1.2.1.5.1 1m.3-.8c0-.7-.3-.8-.6-.8-.2 0-.8 0-1.1-.1-.1 0-.1-.2-.1-.4h-.1c-.1.2-.2.3-.2.5s.1.4.3.5c-.3.5-.2 1-.3 1.7.3 0 .7-.1 1-.1s.6 0 .8.1c.2-.6.3-.6.3-1.4M25 10.1c0-.3-.3-.5-.4-.7v-.3h-.1c-.1.2-.3.4-.3.6 0 .1 0 .3.2.4.1.1.2.2.2.3v.3h.1c.1-.2.3-.4.3-.6M31.2 10c0-.3-.4-.3-.4-.6v-.3h-.1c-.1.2-.3.4-.3.6 0 .1 0 .3.2.4l.2.2v.4h.1c.1-.3.3-.6.3-.7M28.6 7.7c-.3-.3 0-1.1-.3-1.6 0-.1-.2-.1-.3-.1h-.6c-.2 0-.2-.2-.3-.4H27c-.1.1-.1.3-.1.4 0 .4.3.6.5.6.3 0 .6-.1.7.1 0 .1.1.2.1.6v.9h.1c.1-.2.2-.4.3-.5M24.8 7.7c-.3-.3-.1-1.6-.3-1.7-.1-.1-.2-.1-.4-.1h-.5c-.2 0-.3-.1-.4-.5h-.1c0 .2-.1.3-.1.4 0 .3 0 .5.3.6-.1.2-.1.3-.1.5v.6c-.3.1-.3.1-.4.2s-.1.2-.1.4c.7 0 .9-.1.9-.3 0-.2-.2-.6-.2-1 0-.2.1-.2.1-.3.2 0 .4-.1.7 0 .1.1.2.4.2.7v.9h.1c.1-.1.3-.3.3-.4M29.6 7.7c-.1-.1-.1-.1-.1-.2-.1-.1-.1-.4-.1-.6 0-.1 0-.2.1-.3.1-.1.1-.2.1-.5 0-.2-.2-.2-.4-.2s-.3-.1-.3-.2-.1-.2-.1-.2h-.1c-.1.2-.1.3-.1.5 0 .4.1.6.6.6 0 .4-.1.7-.1 1.1v.5h.1c.2-.2.3-.3.4-.5"/><path d="M22.9 6.7c0-.4-.3-.4-.6-.6-.2-.1-.3-.2-.3-.6h-.1c-.2.2-.3.4-.4.6-.2 0-.5-.2-.4-.6H21c-.2.1-.2.3-.2.5s.1.4.4.6c-.1.2-.4.5-.4.7s.1.5.1.6 0 .2-.1.3c0 0 0 .1.1.1.1-.2.3-.3.3-.7 0-.2-.1-.3-.1-.5s.2-.5.4-.7c.4.2 1 .3 1 .8 0 .1-.1.4-.2.5s-.2.1-.4.1h-.5c-.1.2-.1.3-.2.5h.8c.3 0 .4-.2.6-.6.1-.4.3-.7.3-1M25.8 7.7c-.1-.1-.1-.1-.1-.2-.1-.1-.1-.4-.1-.6v-.3c0-.1.2-.2.2-.5 0-.2-.2-.2-.5-.2-.1 0-.2-.1-.3-.2l-.1-.2h-.1c0 .2-.1.3-.1.5 0 .4.1.5.6.5 0 .2-.1.4-.1.7 0 .3 0 .7-.1.9h.1c.5-.1.5-.2.6-.4M31.8 7.4c0-.2-.1-.4-.3-.5-.1 0-.2-.2-.1-.1.2-.1.4-.3.4-.6 0-.1 0-.2-.1-.3-.1 0-.2-.1-.2-.2v-.2h-.1c-.1.1-.3.3-.3.5 0 .4.5.3.2.8-.5-.2-1.1-.5-1-1.2h-.1c-.2.1-.2.4-.2.5 0 .4.3.7.5.8-.1.1-.2.1-.2.2-.1.1-.2.2-.2.4v.4l-.2.1v.1c.3 0 .8.1.8-.3 0-.1-.2-.3-.2-.4 0-.2.1-.3.2-.4.4.2.9.4.9.8 0 .1 0 .2-.1.3h.1c.1-.2.2-.5.2-.7"/><path fill="#FFF" d="M37.2 46.1c1.2 1.2 3.2 1.2 4.4 0s1.2-3.2 0-4.4-3.2-1.2-4.4 0-1.2 3.2 0 4.4M30.3 53c1.2 1.2 3.2 1.2 4.4 0s1.2-3.2 0-4.4-3.2-1.2-4.4 0c-1.2 1.2-1.2 3.1 0 4.4M17.7 48.5c-1.2 1.2-1.2 3.2 0 4.4s3.2 1.2 4.4 0 1.2-3.2 0-4.4c-1.1-1.2-3.1-1.2-4.4 0M10.9 41.7c-1.2 1.2-1.2 3.2 0 4.4s3.2 1.2 4.4 0 1.2-3.2 0-4.4a2.97 2.97 0 0 0-4.4 0"/><path fill="#9CB6D3" d="M17.7 26.6c1.2 1.2 3.2 1.2 4.4 0s1.2-3.2 0-4.4c-1.2-1.2-3.2-1.2-4.4 0s-1.2 3.2 0 4.4M10.9 33.5c1.2 1.2 3.2 1.2 4.4 0s1.2-3.2 0-4.4c-1.2-1.2-3.2-1.2-4.4 0a2.97 2.97 0 0 0 0 4.4M37.2 29.1c-1.2 1.2-1.2 3.2 0 4.4s3.2 1.2 4.4 0 1.2-3.2 0-4.4c-1.2-1.2-3.2-1.2-4.4 0M30.3 22.2c-1.2 1.2-1.2 3.2 0 4.4 1.2 1.2 3.2 1.2 4.4 0s1.2-3.2 0-4.4c-1.2-1.2-3.2-1.2-4.4 0"/><path fill="#FFF" d="M37.7 37.3 26.2 25.8 14.8 37.3z"/><path fill="#9CB6D3" d="m14.8 37.9 11.4 11.5 11.5-11.5z"/></g></svg>